<svg width="207" height="121" viewBox="0 0 207 121" fill="none" xmlns="http://www.w3.org/2000/svg">
<rect width="207" height="121" fill="white"/>
<line x1="11" y1="101.5" x2="207" y2="101.5" stroke="black"/>
<path d="M104.32 120.72C103.36 120.72 102.587 120.427 102 119.84C101.467 119.307 101.2 118.56 101.2 117.6V79.84C101.253 75.68 102.24 71.9467 104.16 68.64C106.133 65.28 108.773 62.64 112.08 60.72C115.44 58.8 119.2 57.84 123.36 57.84C127.627 57.84 131.44 58.8267 134.8 60.8C138.16 62.72 140.8 65.36 142.72 68.72C144.693 72.08 145.68 75.8933 145.68 80.16C145.68 84.3733 144.72 88.16 142.8 91.52C140.933 94.88 138.373 97.5467 135.12 99.52C131.867 101.44 128.187 102.4 124.08 102.4C120.507 102.4 117.253 101.653 114.32 100.16C111.44 98.6133 109.12 96.5867 107.36 94.08V117.6C107.36 118.56 107.067 119.307 106.48 119.84C105.947 120.427 105.227 120.72 104.32 120.72ZM123.36 96.8C126.453 96.8 129.227 96.08 131.68 94.64C134.133 93.2 136.053 91.2267 137.44 88.72C138.88 86.16 139.6 83.3067 139.6 80.16C139.6 76.96 138.88 74.1067 137.44 71.6C136.053 69.0933 134.133 67.12 131.68 65.68C129.227 64.1867 126.453 63.44 123.36 63.44C120.32 63.44 117.573 64.1867 115.12 65.68C112.667 67.12 110.747 69.0933 109.36 71.6C107.973 74.1067 107.28 76.96 107.28 80.16C107.28 83.3067 107.973 86.16 109.36 88.72C110.747 91.2267 112.667 93.2 115.12 94.64C117.573 96.08 120.32 96.8 123.36 96.8ZM177.043 102.4C172.936 102.4 169.256 101.44 166.003 99.52C162.749 97.5467 160.162 94.88 158.243 91.52C156.376 88.16 155.443 84.3733 155.443 80.16C155.443 75.8933 156.403 72.08 158.323 68.72C160.296 65.36 162.963 62.72 166.323 60.8C169.683 58.8267 173.469 57.84 177.683 57.84C181.896 57.84 185.656 58.8267 188.963 60.8C192.323 62.72 194.963 65.36 196.883 68.72C198.856 72.08 199.869 75.8933 199.923 80.16L197.443 82.08C197.443 85.92 196.536 89.3867 194.723 92.48C192.963 95.52 190.536 97.9467 187.443 99.76C184.403 101.52 180.936 102.4 177.043 102.4ZM177.683 96.8C180.776 96.8 183.523 96.08 185.923 94.64C188.376 93.2 190.296 91.2267 191.682 88.72C193.123 86.16 193.843 83.3067 193.843 80.16C193.843 76.96 193.123 74.1067 191.682 71.6C190.296 69.0933 188.376 67.12 185.923 65.68C183.523 64.1867 180.776 63.44 177.683 63.44C174.643 63.44 171.896 64.1867 169.443 65.68C166.989 67.12 165.043 69.0933 163.603 71.6C162.163 74.1067 161.443 76.96 161.443 80.16C161.443 83.3067 162.163 86.16 163.603 88.72C165.043 91.2267 166.989 93.2 169.443 94.64C171.896 96.08 174.643 96.8 177.683 96.8ZM196.803 102C195.896 102 195.149 101.733 194.563 101.2C193.976 100.613 193.683 99.8667 193.683 98.96V85.28L195.203 78.96L199.923 80.16V98.96C199.923 99.8667 199.629 100.613 199.043 101.2C198.456 101.733 197.709 102 196.803 102ZM177.123 51.6C176.269 51.6 175.523 51.3067 174.883 50.72C174.296 50.08 174.003 49.3333 174.003 48.48C174.003 47.6267 174.243 46.9333 174.723 46.4L183.763 37.36C184.349 36.7733 185.069 36.48 185.923 36.48C186.829 36.48 187.576 36.8 188.163 37.44C188.749 38.0267 189.043 38.7733 189.043 39.68C189.043 40.0533 188.963 40.4267 188.803 40.8C188.696 41.1733 188.483 41.4933 188.163 41.76L179.203 50.8C178.669 51.3333 177.976 51.6 177.123 51.6Z" fill="black"/>
<path d="M104.5 51C104.5 78.8768 81.2326 101.5 52.5 101.5C23.7674 101.5 0.5 78.8768 0.5 51C0.5 23.1232 23.7674 0.5 52.5 0.5C81.2326 0.5 104.5 23.1232 104.5 51Z" stroke="black"/>
</svg>
